# xmcd
#
# Track frame offsets: 
#        150
#        14475
#        30676
#        50543
#        69877
#        86356
#        106274
#        123903
#        143814
#        162829
#        177895
#        193551
#
# Disc length: 2931 seconds
#
# Revision: 0
# Processed by: cddbd v1.5.2PL0 Copyright (c) Steve Scherf et al.
# Submitted via: ExactAudioCopyFreeDBPlugin 1.0
#
DISCID=940b710c
DTITLE=Mitch Rossell - Wild One
DYEAR=2010
DGENRE=Country
TTITLE0=Ride Cowboy Ride
TTITLE1=Hold On To Me
TTITLE2=Johnny
TTITLE3=Love Like That
TTITLE4=Country Boys Like Me
TTITLE5=Wild One
TTITLE6=Katie
TTITLE7=Damn Good Country Song
TTITLE8=He Laid Down His Life
TTITLE9=Snowing in Hell
TTITLE10=Guitar Man
TTITLE11=Let's Win America Back
EXTD=
EXTT0=
EXTT1=
EXTT2=
EXTT3=
EXTT4=
EXTT5=
EXTT6=
EXTT7=
EXTT8=
EXTT9=
EXTT10=
EXTT11=
PLAYORDER=
